<svg width="397.959" height="184.694" xmlns="http://www.w3.org/2000/svg"><g transform="translate(0 -105.102)"><rect style="fill:#121f3b;fill-opacity:1;stroke:#e1e1e1;stroke-width:0" width="397.959" height="184.694" y="105.102" ry="15"/><path style="fill:#dedede" d="M329.745 250.835c-1.94-2.384-11.242-15.324-20.67-28.756-12.482-17.783-16.792-24.642-15.858-25.235.706-.447 6.12-.82 12.033-.829L316 196v-51.047l17.25.273 17.25.274.267 25.25.267 25.25h11.924c6.558 0 12.13.338 12.38.75.47.772-36.586 52.942-40.1 56.457-1.952 1.952-1.986 1.937-5.493-2.372zM163 196.5V145h33.914l12.098 15.975c6.654 8.786 12.507 16.228 13.006 16.536.5.309 6.437-6.868 13.195-15.948l12.287-16.509 17.5.223 17.5.223.26 51.25.258 51.25H248l-.13-17.25c-.073-9.488-.41-20.625-.75-24.75l-.62-7.498L238.351 209c-12.154 15.66-14.755 18.442-16.585 17.74-.876-.337-6.469-6.748-12.43-14.248L198.5 198.856l-.623 10.822c-.342 5.952-.68 16.726-.75 23.941L197 246.74l-3.75.62c-2.063.34-9.713.624-17 .63L163 248ZM52.906 246.025c-7.93-.998-16.377-3.1-24.156-6.015-8.428-3.157-7.815-3.88 4.7-5.537 5.76-.763 19.796-5.666 23.839-8.328l2.789-1.836-6.626-3.875c-8.77-5.128-18.821-15.862-22.786-24.332-2.8-5.983-3.128-7.73-3.492-18.635-.393-11.799 1.313-23.354 3.818-25.86.547-.546 2.227.59 4.21 2.848 3.71 4.228 13.186 11.237 19.475 14.406 4.88 2.46 16.639 5.724 23.923 6.642l5.1.643.644-6.166c1.705-16.306 11.06-25.313 26.29-25.313 6.49 0 8.105.415 14.355 3.689l7.042 3.689 7.536-3.137c4.145-1.726 7.811-2.863 8.147-2.527.797.796-.934 4.598-5.749 12.627-3.45 5.754-4.029 7.667-4.994 16.5-2.476 22.674-7.315 34.3-19.93 47.882-8.923 9.607-22.632 17.772-35.305 21.027-7.498 1.926-20.522 2.652-28.83 1.608z"/></g></svg>
